<svg xmlns="http://www.w3.org/2000/svg" viewBox="0 0 27.529 15.989"><defs><style>.a{isolation:isolate;}.b{fill:#0020fa;}</style></defs><title>logo</title><g class="a"><path class="b" d="M7.363,10.448a3.122,3.122,0,0,1-2.046.757,3.089,3.089,0,0,1-.836-.112A3.208,3.208,0,0,1,2.592,9.638a3.217,3.217,0,0,1-.319-.753,3.16,3.16,0,0,1,0-1.675,3.162,3.162,0,0,1,.319-.755,3.2,3.2,0,0,1,.5-.641,3.231,3.231,0,0,1,.64-.5A3.182,3.182,0,0,1,4.481,5a3.089,3.089,0,0,1,.836-.112,3.156,3.156,0,0,1,1.094.193,3,3,0,0,1,.952.564L6.717,6.708a1.833,1.833,0,0,0-.634-.444,1.936,1.936,0,0,0-.766-.156,1.863,1.863,0,0,0-.757.154,1.96,1.96,0,0,0-.617.415,1.938,1.938,0,0,0-.417.616,1.892,1.892,0,0,0-.153.756,1.856,1.856,0,0,0,.153.75A1.966,1.966,0,0,0,4.56,9.831a1.879,1.879,0,0,0,.757.153,1.935,1.935,0,0,0,.766-.155,1.822,1.822,0,0,0,.634-.445Z"/><path class="b" d="M10.814,11.073H9.6V9.163A2.425,2.425,0,0,1,8.274,8.3,2.464,2.464,0,0,1,7.9,7.6a2.406,2.406,0,0,1-.134-.8V4.973H8.984V6.8a1.188,1.188,0,0,0,.1.474,1.225,1.225,0,0,0,.651.651,1.233,1.233,0,0,0,.949,0,1.225,1.225,0,0,0,.651-.651,1.188,1.188,0,0,0,.1-.474V4.973h1.217V6.8a2.381,2.381,0,0,1-.134.8,2.461,2.461,0,0,1-.376.693,2.433,2.433,0,0,1-.579.538,2.361,2.361,0,0,1-.74.328Z"/><path class="b" d="M19.449,8.049a3.094,3.094,0,0,1-.112.836,3.254,3.254,0,0,1-.317.753,3.154,3.154,0,0,1-3.559,1.455,3.2,3.2,0,0,1-1.888-1.455,3.22,3.22,0,0,1-.32-.753,3.131,3.131,0,0,1,.32-2.428,3.154,3.154,0,0,1,1.888-1.448,3.156,3.156,0,0,1,1.674,0A3.168,3.168,0,0,1,19.02,6.457a3.148,3.148,0,0,1,.317.753A3.111,3.111,0,0,1,19.449,8.049Zm-1.212,0a1.892,1.892,0,0,0-.153-.756,1.966,1.966,0,0,0-.415-.616,1.938,1.938,0,0,0-.617-.415,1.933,1.933,0,0,0-1.512,0,1.971,1.971,0,0,0-.617.415,1.922,1.922,0,0,0-.417.616,1.892,1.892,0,0,0-.153.756,1.856,1.856,0,0,0,.153.75A1.966,1.966,0,0,0,15.54,9.831a1.944,1.944,0,0,0,1.512,0,1.943,1.943,0,0,0,.617-.417,2.009,2.009,0,0,0,.415-.615A1.856,1.856,0,0,0,18.237,8.049Z"/><path class="b" d="M21.471,11.073H20.249v-6.1h2.442a2.389,2.389,0,0,1,.647.087,2.446,2.446,0,0,1,1.074.629,2.453,2.453,0,0,1,.383.5,2.512,2.512,0,0,1,.247.583,2.343,2.343,0,0,1,.087.646,2.381,2.381,0,0,1-.191.947,2.451,2.451,0,0,1-1.3,1.3,2.378,2.378,0,0,1-.947.192h-1.22Zm0-4.88V8.636h1.22a1.177,1.177,0,0,0,.473-.1,1.231,1.231,0,0,0,.387-.262,1.215,1.215,0,0,0,.261-.389,1.221,1.221,0,0,0,0-.949,1.215,1.215,0,0,0-.261-.389,1.231,1.231,0,0,0-.387-.262,1.194,1.194,0,0,0-.473-.1Z"/></g></svg>